<mxfile host="app.diagrams.net" modified="2022-08-23T23:37:58.874Z" agent="5.0 (Windows NT 10.0; Win64; x64) AppleWebKit/537.36 (KHTML, like Gecko) Chrome/104.0.0.0 Safari/537.36" etag="zZmFgmHu8BRPStjjJPp_" version="20.2.6" type="github">
  <diagram id="-_3DRwT8xkjRONkNg6IB" name="Page-1">
    <mxGraphModel dx="1642" dy="964" grid="1" gridSize="10" guides="1" tooltips="1" connect="1" arrows="1" fold="1" page="1" pageScale="1" pageWidth="850" pageHeight="1100" math="0" shadow="0">
      <root>
        <mxCell id="0" />
        <mxCell id="1" parent="0" />
        <mxCell id="3ZW7eX7dOhEltWT9-FUy-19" style="edgeStyle=orthogonalEdgeStyle;rounded=0;orthogonalLoop=1;jettySize=auto;html=1;exitX=0.5;exitY=1;exitDx=0;exitDy=0;fontSize=17;" edge="1" parent="1" source="3ZW7eX7dOhEltWT9-FUy-8">
          <mxGeometry relative="1" as="geometry">
            <mxPoint x="396" y="440" as="targetPoint" />
          </mxGeometry>
        </mxCell>
        <mxCell id="3ZW7eX7dOhEltWT9-FUy-8" value="sum=0&lt;br&gt;i=1" style="rounded=1;whiteSpace=wrap;html=1;absoluteArcSize=1;arcSize=14;strokeWidth=2;fontSize=17;" vertex="1" parent="1">
          <mxGeometry x="327.5" y="320" width="136.76" height="50" as="geometry" />
        </mxCell>
        <mxCell id="3ZW7eX7dOhEltWT9-FUy-10" value="" style="endArrow=classic;html=1;rounded=0;fontSize=17;" edge="1" parent="1" target="3ZW7eX7dOhEltWT9-FUy-8">
          <mxGeometry width="50" height="50" relative="1" as="geometry">
            <mxPoint x="395.8800000000001" y="250" as="sourcePoint" />
            <mxPoint x="440" y="380" as="targetPoint" />
          </mxGeometry>
        </mxCell>
        <mxCell id="3ZW7eX7dOhEltWT9-FUy-17" style="edgeStyle=orthogonalEdgeStyle;rounded=0;orthogonalLoop=1;jettySize=auto;html=1;exitX=0.5;exitY=1;exitDx=0;exitDy=0;exitPerimeter=0;entryX=0.5;entryY=0;entryDx=0;entryDy=0;fontSize=17;" edge="1" parent="1" source="3ZW7eX7dOhEltWT9-FUy-12">
          <mxGeometry relative="1" as="geometry">
            <mxPoint x="395.8800000000001" y="200" as="targetPoint" />
          </mxGeometry>
        </mxCell>
        <mxCell id="3ZW7eX7dOhEltWT9-FUy-12" value="Start" style="strokeWidth=2;html=1;shape=mxgraph.flowchart.terminator;whiteSpace=wrap;fontSize=17;" vertex="1" parent="1">
          <mxGeometry x="330.01" y="90" width="131.75" height="50" as="geometry" />
        </mxCell>
        <mxCell id="3ZW7eX7dOhEltWT9-FUy-18" value="Enter n" style="shape=parallelogram;html=1;strokeWidth=2;perimeter=parallelogramPerimeter;whiteSpace=wrap;rounded=1;arcSize=12;size=0.23;fontSize=17;" vertex="1" parent="1">
          <mxGeometry x="324.63" y="200" width="142.5" height="60" as="geometry" />
        </mxCell>
        <mxCell id="3ZW7eX7dOhEltWT9-FUy-22" style="edgeStyle=orthogonalEdgeStyle;rounded=0;orthogonalLoop=1;jettySize=auto;html=1;exitX=0.5;exitY=1;exitDx=0;exitDy=0;fontSize=17;" edge="1" parent="1" source="3ZW7eX7dOhEltWT9-FUy-20" target="3ZW7eX7dOhEltWT9-FUy-21">
          <mxGeometry relative="1" as="geometry">
            <Array as="points">
              <mxPoint x="400" y="510" />
              <mxPoint x="400" y="510" />
            </Array>
          </mxGeometry>
        </mxCell>
        <mxCell id="3ZW7eX7dOhEltWT9-FUy-20" value="sum=sum+(i*i)" style="rounded=1;whiteSpace=wrap;html=1;absoluteArcSize=1;arcSize=14;strokeWidth=2;fontSize=17;" vertex="1" parent="1">
          <mxGeometry x="330.01" y="440" width="140" height="50" as="geometry" />
        </mxCell>
        <mxCell id="3ZW7eX7dOhEltWT9-FUy-34" style="edgeStyle=orthogonalEdgeStyle;rounded=0;orthogonalLoop=1;jettySize=auto;html=1;exitX=0.5;exitY=1;exitDx=0;exitDy=0;entryX=0.5;entryY=0;entryDx=0;entryDy=0;entryPerimeter=0;fontSize=17;" edge="1" parent="1" source="3ZW7eX7dOhEltWT9-FUy-21" target="3ZW7eX7dOhEltWT9-FUy-23">
          <mxGeometry relative="1" as="geometry" />
        </mxCell>
        <mxCell id="3ZW7eX7dOhEltWT9-FUy-21" value="i=i+1" style="rounded=1;whiteSpace=wrap;html=1;absoluteArcSize=1;arcSize=14;strokeWidth=2;fontSize=17;" vertex="1" parent="1">
          <mxGeometry x="330.01" y="550" width="140" height="40" as="geometry" />
        </mxCell>
        <mxCell id="3ZW7eX7dOhEltWT9-FUy-28" style="edgeStyle=orthogonalEdgeStyle;rounded=0;orthogonalLoop=1;jettySize=auto;html=1;exitX=0;exitY=0.5;exitDx=0;exitDy=0;exitPerimeter=0;fontSize=17;" edge="1" parent="1" source="3ZW7eX7dOhEltWT9-FUy-23">
          <mxGeometry relative="1" as="geometry">
            <mxPoint x="240" y="680" as="targetPoint" />
          </mxGeometry>
        </mxCell>
        <mxCell id="3ZW7eX7dOhEltWT9-FUy-23" value="is i&amp;lt;=n" style="strokeWidth=2;html=1;shape=mxgraph.flowchart.decision;whiteSpace=wrap;fontSize=17;" vertex="1" parent="1">
          <mxGeometry x="330" y="620" width="130" height="120" as="geometry" />
        </mxCell>
        <mxCell id="3ZW7eX7dOhEltWT9-FUy-24" value="" style="endArrow=classic;html=1;rounded=0;fontSize=17;exitX=1;exitY=0.5;exitDx=0;exitDy=0;exitPerimeter=0;entryX=1;entryY=0.75;entryDx=0;entryDy=0;" edge="1" parent="1" source="3ZW7eX7dOhEltWT9-FUy-23" target="3ZW7eX7dOhEltWT9-FUy-18">
          <mxGeometry width="50" height="50" relative="1" as="geometry">
            <mxPoint x="380" y="600" as="sourcePoint" />
            <mxPoint x="460" y="350" as="targetPoint" />
            <Array as="points">
              <mxPoint x="560" y="680" />
              <mxPoint x="560" y="478" />
              <mxPoint x="560" y="350" />
              <mxPoint x="560" y="240" />
              <mxPoint x="510" y="240" />
            </Array>
          </mxGeometry>
        </mxCell>
        <mxCell id="3ZW7eX7dOhEltWT9-FUy-30" value="No" style="text;html=1;align=center;verticalAlign=middle;resizable=0;points=[];autosize=1;strokeColor=none;fillColor=none;fontSize=17;" vertex="1" parent="1">
          <mxGeometry x="270" y="695" width="50" height="30" as="geometry" />
        </mxCell>
        <mxCell id="3ZW7eX7dOhEltWT9-FUy-32" style="edgeStyle=orthogonalEdgeStyle;rounded=0;orthogonalLoop=1;jettySize=auto;html=1;exitX=0.5;exitY=1;exitDx=0;exitDy=0;fontSize=17;" edge="1" parent="1" source="3ZW7eX7dOhEltWT9-FUy-31">
          <mxGeometry relative="1" as="geometry">
            <mxPoint x="180" y="810" as="targetPoint" />
            <Array as="points">
              <mxPoint x="180" y="770" />
              <mxPoint x="180" y="770" />
            </Array>
          </mxGeometry>
        </mxCell>
        <mxCell id="3ZW7eX7dOhEltWT9-FUy-31" value="Print sum" style="shape=parallelogram;html=1;strokeWidth=2;perimeter=parallelogramPerimeter;whiteSpace=wrap;rounded=1;arcSize=12;size=0.23;fontSize=17;" vertex="1" parent="1">
          <mxGeometry x="120" y="637.5" width="140" height="85" as="geometry" />
        </mxCell>
        <mxCell id="3ZW7eX7dOhEltWT9-FUy-33" value="Stop" style="strokeWidth=2;html=1;shape=mxgraph.flowchart.terminator;whiteSpace=wrap;fontSize=17;" vertex="1" parent="1">
          <mxGeometry x="110" y="810" width="140" height="60" as="geometry" />
        </mxCell>
        <mxCell id="3ZW7eX7dOhEltWT9-FUy-36" value="Yes" style="text;html=1;align=center;verticalAlign=middle;resizable=0;points=[];autosize=1;strokeColor=none;fillColor=none;fontSize=17;" vertex="1" parent="1">
          <mxGeometry x="470.01" y="692.5" width="50" height="30" as="geometry" />
        </mxCell>
      </root>
    </mxGraphModel>
  </diagram>
</mxfile>
